<?xml version="1.0" encoding="UTF-8" standalone="no"?>
<!-- Created with Inkscape (http://www.inkscape.org/) -->

<svg
   xmlns:dc="http://purl.org/dc/elements/1.1/"
   xmlns:cc="http://creativecommons.org/ns#"
   xmlns:rdf="http://www.w3.org/1999/02/22-rdf-syntax-ns#"
   xmlns:svg="http://www.w3.org/2000/svg"
   xmlns="http://www.w3.org/2000/svg"
   xmlns:sodipodi="http://sodipodi.sourceforge.net/DTD/sodipodi-0.dtd"
   xmlns:inkscape="http://www.inkscape.org/namespaces/inkscape"
   width="210mm"
   height="297mm"
   viewBox="0 0 210 297"
   version="1.1"
   id="svg8"
   inkscape:version="0.92.1 r15371"
   sodipodi:docname="bug.svg"
   inkscape:export-filename="/home/gsp/Sync/SERGE/web/images/bug.png"
   inkscape:export-xdpi="24.468895"
   inkscape:export-ydpi="24.468895">
  <defs
     id="defs2" />
  <sodipodi:namedview
     id="base"
     pagecolor="#ffffff"
     bordercolor="#666666"
     borderopacity="1.0"
     inkscape:pageopacity="0.0"
     inkscape:pageshadow="2"
     inkscape:zoom="0.62070312"
     inkscape:cx="364.14357"
     inkscape:cy="709.61003"
     inkscape:document-units="mm"
     inkscape:current-layer="layer1"
     showgrid="false"
     inkscape:window-width="1024"
     inkscape:window-height="576"
     inkscape:window-x="0"
     inkscape:window-y="24"
     inkscape:window-maximized="1" />
  <metadata
     id="metadata5">
    <rdf:RDF>
      <cc:Work
         rdf:about="">
        <dc:format>image/svg+xml</dc:format>
        <dc:type
           rdf:resource="http://purl.org/dc/dcmitype/StillImage" />
        <dc:title />
      </cc:Work>
    </rdf:RDF>
  </metadata>
  <g
     inkscape:label="Calque 1"
     inkscape:groupmode="layer"
     id="layer1">
    <circle
       style="opacity:1;fill:#cccccc;fill-opacity:1;stroke:none;stroke-width:1.07142854;stroke-linecap:round;stroke-linejoin:round;stroke-miterlimit:4;stroke-dasharray:none;stroke-dashoffset:0;stroke-opacity:1;paint-order:normal"
       id="path38"
       cx="40.606972"
       cy="106.41367"
       r="4.2626386"
       transform="rotate(-15)" />
    <circle
       style="opacity:1;fill:#cccccc;fill-opacity:1;stroke:none;stroke-width:1.07142854;stroke-linecap:round;stroke-linejoin:round;stroke-miterlimit:4;stroke-dasharray:none;stroke-dashoffset:0;stroke-opacity:1;paint-order:normal"
       id="path38-3"
       cx="50.801208"
       cy="96.219437"
       r="4.2626386"
       transform="rotate(-15)" />
    <circle
       style="opacity:1;fill:#cccccc;fill-opacity:1;stroke:none;stroke-width:1.07142854;stroke-linecap:round;stroke-linejoin:round;stroke-miterlimit:4;stroke-dasharray:none;stroke-dashoffset:0;stroke-opacity:1;paint-order:normal"
       id="path38-6"
       cx="60.995434"
       cy="86.025208"
       r="4.2626386"
       transform="rotate(-15)" />
    <circle
       style="opacity:1;fill:#cccccc;fill-opacity:1;stroke:none;stroke-width:1.07142854;stroke-linecap:round;stroke-linejoin:round;stroke-miterlimit:4;stroke-dasharray:none;stroke-dashoffset:0;stroke-opacity:1;paint-order:normal"
       id="path38-7"
       cx="101.00175"
       cy="126.4492"
       r="4.2626386"
       transform="rotate(-15)" />
    <circle
       style="opacity:1;fill:#cccccc;fill-opacity:1;stroke:none;stroke-width:1.07142854;stroke-linecap:round;stroke-linejoin:round;stroke-miterlimit:4;stroke-dasharray:none;stroke-dashoffset:0;stroke-opacity:1;paint-order:normal"
       id="path38-5"
       cx="90.848892"
       cy="136.60204"
       r="4.2626386"
       transform="rotate(-15)" />
    <circle
       style="opacity:1;fill:#cccccc;fill-opacity:1;stroke:none;stroke-width:1.07142854;stroke-linecap:round;stroke-linejoin:round;stroke-miterlimit:4;stroke-dasharray:none;stroke-dashoffset:0;stroke-opacity:1;paint-order:normal"
       id="path38-35"
       cx="80.696045"
       cy="146.75488"
       r="4.2626386"
       transform="rotate(-15)" />
    <path
       style="fill:#000000;stroke-width:0.1984375"
       d=""
       id="path23"
       inkscape:connector-curvature="0" />
    <path
       style="fill:#000000;stroke-width:0.1984375"
       d=""
       id="path21"
       inkscape:connector-curvature="0" />
    <path
       style="fill:#999999;stroke-width:0.1984375"
       d="m 114.08314,122.20889 c -0.76203,-0.35659 -1.44599,-1.19543 -4.05672,-4.97526 -1.7606,-2.54899 -2.27251,-3.08897 -2.79562,-2.9488 -0.15988,0.0428 -0.78816,0.45012 -1.3962,0.90505 -0.60803,0.45495 -2.00422,1.30913 -3.10265,1.89821 -1.727,0.92616 -2.43756,1.19044 -5.253058,1.95379 -2.815933,0.76384 -3.491954,0.88224 -5.003161,0.87889 -1.632085,-0.004 -4.665652,-0.47712 -5.659131,-0.88333 -0.423327,-0.17305 -0.426266,-0.20616 -0.093,-1.04831 0.426979,-1.07897 18.489614,-32.335819 18.722154,-32.398132 0.0927,-0.02484 1.28567,0.47323 2.65099,1.106838 3.12411,1.44979 5.89737,2.488713 8.59322,3.219186 3.08341,0.835489 3.81027,1.086147 3.74824,1.292633 -0.10643,0.354554 0.82901,0.632201 3.68995,1.095239 6.54751,1.059705 6.80584,1.137006 7.26966,2.175247 0.5347,1.196922 -0.20356,3.108454 -1.31675,3.409337 -0.43261,0.116945 -2.02536,0.0074 -3.50701,-0.241219 -0.65408,-0.109734 -2.53777,-0.429032 -4.18595,-0.709539 -1.64819,-0.280495 -3.04313,-0.425617 -3.09987,-0.322462 -0.30751,0.55904 -2.12464,5.035562 -2.09258,5.155182 0.0208,0.0777 1.59816,1.08936 3.5052,2.24806 3.57608,2.17282 4.24273,2.74667 4.31331,3.71284 0.0891,1.21982 -1.26098,2.60117 -2.49045,2.54814 -0.26715,-0.0115 -2.14211,-0.96209 -4.1666,-2.11238 l -3.68089,-2.09142 -1.68964,2.17261 c -0.92932,1.19494 -1.66585,2.25869 -1.63677,2.36389 0.029,0.10518 1.24444,1.85961 2.70077,3.89868 3.50838,4.91223 3.85416,5.84088 2.64663,7.10769 -0.72073,0.75612 -1.75802,0.98997 -2.61407,0.58934 z m -32.369011,-6.4079 c -3.100454,-3.02412 -4.944331,-7.31308 -5.439537,-12.6527 -0.120485,-1.29913 -0.150467,-3.172324 -0.06662,-4.162674 0.08384,-0.990342 0.122874,-2.078626 0.08675,-2.418409 -0.08059,-0.758032 -0.217351,-0.790306 -4.912741,-1.158857 -4.735195,-0.371684 -5.439794,-0.569622 -5.971173,-1.677453 -0.656151,-1.367934 -0.03048,-2.951209 1.307958,-3.309847 0.847967,-0.227206 1.351535,-0.205192 6.65526,0.291043 2.157506,0.201868 4.01006,0.343639 4.116777,0.315047 0.16046,-0.043 1.801188,-3.797428 2.113425,-4.836083 0.06511,-0.216603 -0.951187,-0.917684 -3.558719,-2.454946 -2.007423,-1.183466 -3.765078,-2.331862 -3.905896,-2.551976 -0.983594,-1.537486 0.399362,-3.81688 2.168631,-3.57436 0.329949,0.04524 2.212592,0.960767 4.183653,2.034516 1.971064,1.073758 3.673072,1.887401 3.782244,1.808103 0.233513,-0.169617 3.457501,-4.335093 3.431211,-4.433211 -0.02462,-0.09186 -2.882707,-3.592336 -4.270345,-5.230125 -0.624162,-0.736687 -1.424156,-1.793774 -1.777764,-2.349094 -0.608029,-0.954868 -0.635188,-1.051418 -0.500408,-1.778994 0.180181,-0.972646 1.34678,-1.99235 2.368823,-2.070538 0.91952,-0.07035 1.311231,0.292382 4.514042,4.18 2.639683,3.204107 3.398369,3.975779 3.648106,3.710607 0.186683,-0.198225 0.741798,0.264087 2.612796,2.176024 2.074209,2.119599 4.339921,4.011691 7.313726,6.107693 1.192812,0.840726 2.244022,1.632202 2.335992,1.758831 0.17625,0.242642 -11.68195,21.192573 -16.437112,29.039513 l -2.644539,4.36401 z M 118.94879,86.934787 c -4.4915,-1.228784 -8.18471,-2.810963 -13.28574,-5.691665 -3.53164,-1.994411 -6.047663,-3.773841 -9.189054,-6.498873 -2.494853,-2.164187 -3.519949,-3.244193 -3.353279,-3.532887 0.235346,-0.407633 3.480098,-1.761477 6.361791,-2.65441 l 2.959072,-0.916908 -0.39883,-2.379194 c -0.56783,-3.387458 -0.63717,-3.580085 -1.60615,-4.462152 -1.154939,-1.051352 -1.824746,-2.876154 -1.542276,-4.20177 0.259466,-1.217704 0.914744,-2.082247 1.998746,-2.637062 2.49663,-1.277834 5.10271,-0.120558 5.82853,2.588269 0.35007,1.306454 -0.0696,2.777112 -1.08631,3.807144 -0.8573,0.868499 -0.90915,1.378454 -0.44936,4.418779 0.27692,1.831041 0.38347,2.200055 0.74111,2.566498 0.22975,0.235374 1.40014,0.726376 2.60088,1.091091 3.24958,0.987039 5.23706,2.21664 7.70544,4.767121 l 0.82872,0.856289 1.37584,-0.368448 c 1.59763,-0.427879 4.06945,-1.423753 4.71361,-1.899143 0.24516,-0.180938 0.61132,-0.779472 0.81365,-1.330084 0.47875,-1.302675 1.3822,-2.114398 2.76606,-2.485202 3.02505,-0.810558 5.54022,1.688028 4.88609,4.853901 -0.31039,1.502261 -1.14585,2.361414 -2.7017,2.7783 -1.31162,0.351445 -2.14688,0.279619 -3.23754,-0.278402 l -0.96821,-0.495372 -1.51846,0.54923 c -0.83517,0.302046 -2.0949,0.813052 -2.79943,1.135507 l -1.28097,0.586266 0.6783,3.08711 c 0.60737,2.764204 1.10326,6.362223 0.94809,6.878884 -0.091,0.303094 -0.23411,0.292481 -1.78866,-0.132819 z"
       id="path36"
       inkscape:connector-curvature="0" />
    <circle
       style="opacity:1;fill:#cccccc;fill-opacity:1;stroke:none;stroke-width:1.07142854;stroke-linecap:round;stroke-linejoin:round;stroke-miterlimit:4;stroke-dasharray:none;stroke-dashoffset:0;stroke-opacity:1;paint-order:normal"
       id="path38-62"
       cx="10.02428"
       cy="136.99635"
       r="4.2626386"
       transform="rotate(-15)" />
    <circle
       style="opacity:1;fill:#cccccc;fill-opacity:1;stroke:none;stroke-width:1.07142854;stroke-linecap:round;stroke-linejoin:round;stroke-miterlimit:4;stroke-dasharray:none;stroke-dashoffset:0;stroke-opacity:1;paint-order:normal"
       id="path38-3-9"
       cx="20.218508"
       cy="126.80213"
       r="4.2626386"
       transform="rotate(-15)" />
    <circle
       style="opacity:1;fill:#cccccc;fill-opacity:1;stroke:none;stroke-width:1.07142854;stroke-linecap:round;stroke-linejoin:round;stroke-miterlimit:4;stroke-dasharray:none;stroke-dashoffset:0;stroke-opacity:1;paint-order:normal"
       id="path38-6-1"
       cx="30.412741"
       cy="116.6079"
       r="4.2626386"
       transform="rotate(-15)" />
    <circle
       style="opacity:1;fill:#cccccc;fill-opacity:1;stroke:none;stroke-width:1.07142854;stroke-linecap:round;stroke-linejoin:round;stroke-miterlimit:4;stroke-dasharray:none;stroke-dashoffset:0;stroke-opacity:1;paint-order:normal"
       id="path38-7-2"
       cx="70.543198"
       cy="156.90773"
       r="4.2626386"
       transform="rotate(-15)" />
    <circle
       style="opacity:1;fill:#cccccc;fill-opacity:1;stroke:none;stroke-width:1.07142854;stroke-linecap:round;stroke-linejoin:round;stroke-miterlimit:4;stroke-dasharray:none;stroke-dashoffset:0;stroke-opacity:1;paint-order:normal"
       id="path38-5-7"
       cx="60.39035"
       cy="167.06058"
       r="4.2626386"
       transform="rotate(-15)" />
    <circle
       style="opacity:1;fill:#cccccc;fill-opacity:1;stroke:none;stroke-width:1.07142854;stroke-linecap:round;stroke-linejoin:round;stroke-miterlimit:4;stroke-dasharray:none;stroke-dashoffset:0;stroke-opacity:1;paint-order:normal"
       id="path38-35-0"
       cx="50.237511"
       cy="177.21342"
       r="4.2626386"
       transform="rotate(-15)" />
  </g>
</svg>
