<?xml version="1.0" encoding="UTF-8" standalone="no"?>
<!-- Created with Inkscape (http://www.inkscape.org/) -->

<svg
   xmlns:dc="http://purl.org/dc/elements/1.1/"
   xmlns:cc="http://creativecommons.org/ns#"
   xmlns:rdf="http://www.w3.org/1999/02/22-rdf-syntax-ns#"
   xmlns:svg="http://www.w3.org/2000/svg"
   xmlns="http://www.w3.org/2000/svg"
   xmlns:sodipodi="http://sodipodi.sourceforge.net/DTD/sodipodi-0.dtd"
   xmlns:inkscape="http://www.inkscape.org/namespaces/inkscape"
   version="1.1"
   id="svg2"
   width="107.5308"
   height="80.697617"
   viewBox="0 0 107.5308 80.697616"
   sodipodi:docname="iconFuncRss.svg"
   inkscape:version="0.92.1 r15371"
   inkscape:export-filename="/home/gsp/Sync/SERGE/web/images/iconFuncRss.png"
   inkscape:export-xdpi="130.85889"
   inkscape:export-ydpi="130.85889">
  <metadata
     id="metadata8">
    <rdf:RDF>
      <cc:Work
         rdf:about="">
        <dc:format>image/svg+xml</dc:format>
        <dc:type
           rdf:resource="http://purl.org/dc/dcmitype/StillImage" />
        <dc:title />
      </cc:Work>
    </rdf:RDF>
  </metadata>
  <defs
     id="defs6" />
  <sodipodi:namedview
     pagecolor="#ffffff"
     bordercolor="#666666"
     borderopacity="1"
     objecttolerance="10"
     gridtolerance="10"
     guidetolerance="10"
     inkscape:pageopacity="0"
     inkscape:pageshadow="2"
     inkscape:window-width="1024"
     inkscape:window-height="576"
     id="namedview4"
     showgrid="false"
     inkscape:zoom="2.0025264"
     inkscape:cx="53.507944"
     inkscape:cy="78.101"
     inkscape:window-x="0"
     inkscape:window-y="24"
     inkscape:window-maximized="1"
     inkscape:current-layer="svg2"
     fit-margin-top="1"
     fit-margin-bottom="1"
     fit-margin-right="1"
     fit-margin-left="1"
     showguides="false" />
  <path
     style="fill:#e6e6e6;fill-opacity:1;stroke-width:0.5440582"
     d="M 9.6760531,77.41329 C 6.9664911,76.41002 5.0700732,74.631809 3.8191854,71.921509 0.35583601,64.417444 7.3644911,55.922389 15.294379,58.012644 c 4.857297,1.280349 7.816593,5.009292 7.829378,9.865615 0.01801,6.847493 -7.091581,11.888524 -13.4477039,9.535031 z M 38.44444,74.505784 C 37.673068,67.071801 34.254326,59.456896 29.128759,53.756031 23.772835,47.798947 14.466627,43.203288 6.1954086,42.43091 L 2.7908933,42.112989 v -7.34675 -7.346755 l 4.2164518,0.332431 c 24.3061289,1.91632 44.2934889,21.90368 46.2098089,46.209812 l 0.332424,4.216449 H 46.187535 38.825492 Z M 64.342617,72.200736 C 62.733792,57.367337 56.730796,44.642985 46.528437,34.440632 36.131333,24.043522 23.700704,18.182867 8.6395181,16.577188 L 2.7908933,15.953664 V 8.631756 1.3098479 L 7.8234311,1.683665 C 46.357793,4.5459827 76.423087,34.611275 79.285404,73.14564 l 0.373817,5.032536 h -7.33415 -7.334144 z"
     id="path871"
     inkscape:connector-curvature="0" />
</svg>
