<?xml version="1.0" encoding="UTF-8" standalone="no"?>
<!-- Created with Inkscape (http://www.inkscape.org/) -->

<svg
   xmlns:dc="http://purl.org/dc/elements/1.1/"
   xmlns:cc="http://creativecommons.org/ns#"
   xmlns:rdf="http://www.w3.org/1999/02/22-rdf-syntax-ns#"
   xmlns:svg="http://www.w3.org/2000/svg"
   xmlns="http://www.w3.org/2000/svg"
   xmlns:sodipodi="http://sodipodi.sourceforge.net/DTD/sodipodi-0.dtd"
   xmlns:inkscape="http://www.inkscape.org/namespaces/inkscape"
   version="1.1"
   id="svg2"
   width="107.5308"
   height="80.697617"
   viewBox="0 0 107.5308 80.697616"
   sodipodi:docname="iconFuncOption.svg"
   inkscape:version="0.92.1 r15371"
   inkscape:export-filename="/home/gsp/Sync/SERGE/web/images/iconFuncOption.png"
   inkscape:export-xdpi="130.85889"
   inkscape:export-ydpi="130.85889">
  <metadata
     id="metadata8">
    <rdf:RDF>
      <cc:Work
         rdf:about="">
        <dc:format>image/svg+xml</dc:format>
        <dc:type
           rdf:resource="http://purl.org/dc/dcmitype/StillImage" />
        <dc:title />
      </cc:Work>
    </rdf:RDF>
  </metadata>
  <defs
     id="defs6" />
  <sodipodi:namedview
     pagecolor="#ffffff"
     bordercolor="#666666"
     borderopacity="1"
     objecttolerance="10"
     gridtolerance="10"
     guidetolerance="10"
     inkscape:pageopacity="0"
     inkscape:pageshadow="2"
     inkscape:window-width="1024"
     inkscape:window-height="576"
     id="namedview4"
     showgrid="false"
     inkscape:zoom="4.0050527"
     inkscape:cx="36.164446"
     inkscape:cy="48.198109"
     inkscape:window-x="0"
     inkscape:window-y="24"
     inkscape:window-maximized="1"
     inkscape:current-layer="svg2"
     fit-margin-top="1"
     fit-margin-bottom="1"
     fit-margin-right="1"
     fit-margin-left="1" />
  <path
     style="fill:#e6e6e6;stroke-width:0.18134351;fill-opacity:1"
     d="M 38.424654,78.856629 C 33.879328,78.305598 33.72042,78.195496 33.51528,75.455197 33.43877,74.433123 33.371542,73.270463 33.365887,72.871507 l -0.01028,-0.725374 -1.495995,-0.512295 c -0.822799,-0.281764 -2.265116,-0.874984 -3.205153,-1.31827 l -1.709158,-0.805974 -0.557276,0.502223 c -0.306499,0.276223 -1.087961,1.000309 -1.736579,1.609078 -1.293841,1.214356 -1.737023,1.430032 -2.604192,1.26735 -0.894659,-0.167841 -4.211305,-2.776747 -6.722707,-5.288146 -2.511399,-2.511397 -5.120304,-5.828045 -5.288143,-6.722705 -0.1733881,-0.924239 0.05942,-1.326343 1.795077,-3.100446 L 13.470318,56.101812 12.708276,54.49827 C 12.289155,53.616322 11.672005,52.126009 11.336835,51.186461 L 10.72743,49.478192 8.2956089,49.387522 c -3.498493,-0.130443 -3.532193,-0.160733 -4.077189,-3.664613 -0.585536,-3.764493 -0.382911,-10.55564 0.396955,-13.304425 0.427746,-1.507659 0.629755,-1.604339 3.571678,-1.709343 l 2.5403341,-0.09067 0.609427,-1.708272 c 0.335183,-0.939547 0.952344,-2.429859 1.37147,-3.311807 l 0.762041,-1.603543 -1.650369,-1.682909 c -0.907703,-0.925597 -1.705817,-1.903825 -1.773586,-2.173832 -0.2433141,-0.969446 0.205241,-1.824619 2.350098,-4.480477 2.641383,-3.27068 8.257895,-8.1879038 9.650792,-8.4492111 0.879192,-0.1649395 1.313585,0.05409 2.694714,1.3587002 0.698171,0.6594975 1.480088,1.3835167 1.737591,1.6089349 l 0.468183,0.409854 1.707939,-0.8053932 c 0.939366,-0.4429694 2.374001,-1.0335956 3.188078,-1.312512 l 1.480139,-0.5071114 0.110497,-2.2719751 c 0.121298,-2.4940673 0.401376,-3.3769125 1.190795,-3.7535805 1.017772,-0.4856194 4.584062,-0.8634006 8.160459,-0.8644477 5.078407,-0.00156 8.305883,0.5126994 9.034808,1.4393712 0.294419,0.3742947 0.375942,0.8717977 0.483608,2.9512384 l 0.129498,2.5010529 1.477727,0.5062837 c 0.812751,0.2784575 2.246852,0.8689735 3.186889,1.3122568 l 1.709157,0.8059749 0.557275,-0.502221 C 59.671116,9.80862 60.459986,9.0773848 61.117656,8.4598738 63.15129,6.5504247 63.649585,6.64045 67.264474,9.5703842 c 2.96791,2.4055438 7.775622,7.7648758 8.37141,9.3319148 0.36869,0.96973 0.03498,1.637177 -1.706134,3.412645 l -1.647425,1.679905 0.762042,1.603543 c 0.419125,0.881948 1.036287,2.37226 1.371469,3.311807 l 0.609423,1.708272 2.540338,0.09067 c 2.94192,0.105004 3.143933,0.201684 3.571679,1.709343 1.043515,3.678069 0.922373,13.751519 -0.191272,15.905074 -0.427369,0.826437 -0.887002,0.966233 -3.498195,1.063964 l -2.422593,0.09067 -0.609404,1.708269 c -0.33517,0.939548 -0.95232,2.429861 -1.371445,3.311809 l -0.762042,1.603542 1.638836,1.675136 c 0.90136,0.921325 1.69838,1.865842 1.77115,2.098927 0.245267,0.785587 -0.07862,1.57124 -1.340554,3.251705 -2.275363,3.030024 -5.505718,6.270881 -8.444806,8.472266 -2.361773,1.768977 -2.959827,1.761768 -4.885411,-0.05888 -0.704147,-0.665777 -1.490955,-1.394938 -1.748454,-1.620357 l -0.468187,-0.409853 -1.707937,0.805394 c -0.939363,0.442968 -2.381131,1.035928 -3.203929,1.317691 l -1.495995,0.512296 -0.01028,0.725374 c -0.0057,0.398956 -0.07321,1.566273 -0.150112,2.594039 -0.176784,2.362514 -0.394551,2.637829 -2.38377,3.013749 -3.474299,0.656559 -7.915383,0.803196 -11.428215,0.377334 z m 9.483948,-4.16378 c 0.279516,-0.121004 0.31735,-0.425827 0.31735,-2.55689 v -2.419507 l 0.602791,-0.459771 c 0.331536,-0.252874 1.616808,-0.785665 2.856162,-1.183981 1.239351,-0.398314 3.342852,-1.25643 4.674437,-1.906923 1.492253,-0.728978 2.650958,-1.182714 3.020296,-1.182714 0.499048,0 0.903631,0.273227 2.42018,1.634422 l 1.820965,1.634422 1.596441,-1.341858 c 2.402697,-2.019547 6.044922,-5.966231 6.03658,-6.541194 -0.0016,-0.105267 -0.0725,-0.08138 -0.157713,0.05308 -0.114109,0.18006 -0.567304,-0.218687 -1.719985,-1.513353 -1.295375,-1.45493 -1.565055,-1.861074 -1.565055,-2.356994 0,-0.369267 0.453806,-1.528129 1.182712,-3.020237 0.650497,-1.331587 1.508612,-3.435087 1.906923,-4.674439 0.398316,-1.239352 0.931108,-2.524625 1.183983,-2.856161 L 72.54444,45.39796 h 2.435456 2.435452 l 0.139464,-0.498695 c 0.0767,-0.274282 0.13946,-2.457203 0.13946,-4.850939 0,-2.393736 -0.06275,-4.576658 -0.13946,-4.850938 L 77.415348,34.698694 H 74.979896 72.54444 L 72.084669,34.095902 C 71.831794,33.764367 71.299002,32.479095 70.900686,31.239741 70.502375,30.00039 69.64426,27.896888 68.993763,26.5653 68.25977,25.062779 67.811051,23.915309 67.811051,23.540845 c 0,-0.504118 0.268496,-0.902772 1.63198,-2.423122 l 1.63198,-1.819733 -1.339416,-1.593503 c -2.017365,-2.400061 -5.964167,-6.04198 -6.538753,-6.033642 -0.105265,0.0016 -0.08321,0.07136 0.04901,0.15519 0.174622,0.11071 -0.240482,0.581395 -1.516879,1.71999 -1.451004,1.29435 -1.861105,1.567569 -2.352925,1.567569 -0.364922,0 -1.53342,-0.458117 -3.016707,-1.182716 C 55.02776,13.280384 52.92426,12.422269 51.684909,12.023953 50.445554,11.625642 49.160283,11.09285 48.828747,10.839975 L 48.225955,10.380204 V 7.9447487 5.5092961 L 47.72726,5.3698323 c -0.649571,-0.1816548 -9.052304,-0.1816548 -9.701876,0 l -0.498695,0.1394638 v 2.4354526 2.4354553 l -0.602792,0.459771 c -0.331534,0.252875 -1.616806,0.785667 -2.856161,1.183978 -1.239351,0.398316 -3.342852,1.256431 -4.674441,1.906925 -1.502521,0.733996 -2.649991,1.182716 -3.024455,1.182716 -0.504119,0 -0.902772,-0.268497 -2.423121,-1.631981 l -1.819733,-1.63198 -1.593505,1.339416 c -2.400062,2.017366 -6.04198,5.964167 -6.033642,6.538753 0.0016,0.105266 0.0725,0.08137 0.157709,-0.05309 0.114109,-0.180058 0.567302,0.21869 1.719985,1.513353 1.29537,1.454934 1.565054,1.861078 1.565054,2.356996 0,0.369268 -0.453805,1.528131 -1.182716,3.020236 -0.650492,1.331588 -1.508607,3.435089 -1.906923,4.67444 -0.398312,1.239355 -0.931103,2.524626 -1.183979,2.856161 l -0.459771,0.602793 H 10.772742 8.3372899 l -0.139463,0.498695 c -0.181655,0.649571 -0.181655,9.052303 0,9.701877 l 0.139463,0.498694 h 2.4354521 2.435456 l 0.459771,0.602792 c 0.252876,0.331535 0.785667,1.616808 1.183979,2.85616 0.398316,1.239353 1.256431,3.342852 1.906923,4.674439 0.728981,1.492253 1.182716,2.650958 1.182716,3.020295 0,0.49905 -0.273225,0.903633 -1.634423,2.420184 l -1.63442,1.820962 1.341856,1.59644 c 2.019547,2.4027 5.966232,6.044921 6.541197,6.036579 0.105266,-0.0015 0.08137,-0.0725 -0.05309,-0.157711 -0.180058,-0.11411 0.218689,-0.567301 1.513353,-1.719985 1.454934,-1.295373 1.861078,-1.565054 2.356996,-1.565054 0.369268,0 1.528131,0.453806 3.020235,1.182714 1.331589,0.650493 3.435091,1.508609 4.674441,1.906922 1.239355,0.398316 2.524627,0.931107 2.856161,1.183982 l 0.602792,0.459771 v 2.435454 c 0,2.712919 -0.117254,2.480737 1.360077,2.69315 0.890972,0.128106 8.677782,-0.0033 9.02184,-0.152207 z M 39.79348,60.356221 C 32.594919,59.187134 26.545464,54.41693 23.907881,47.829879 c -1.166688,-2.91367 -1.484885,-4.581178 -1.484885,-7.78155 0,-3.186203 0.292972,-4.731844 1.478347,-7.799352 1.931341,-4.997917 6.535067,-9.499507 11.586254,-11.329202 3.085309,-1.117597 4.386967,-1.349836 7.479394,-1.334467 3.083941,0.01534 4.70973,0.329163 7.70868,1.488046 4.997917,1.931341 9.499505,6.535067 11.3292,11.586254 1.046978,2.890351 1.33151,4.414136 1.345824,7.207376 0.03479,6.787325 -2.924252,12.717414 -8.339378,16.712659 -4.320143,3.187375 -10.065884,4.613283 -15.217837,3.776578 z m 8.069786,-4.613626 c 5.366085,-1.775234 9.457632,-6.096718 10.996087,-11.614037 0.257016,-0.921738 0.328186,-1.831103 0.326425,-4.170901 -0.0024,-3.217202 -0.187165,-4.178295 -1.277944,-6.648447 -1.469731,-3.328322 -4.964074,-6.822665 -8.292397,-8.292397 -2.493698,-1.101176 -3.423319,-1.278306 -6.739118,-1.284055 -3.008309,-0.0052 -3.127305,0.0092 -4.921939,0.596823 -5.102307,1.670634 -9.126176,5.694502 -10.79681,10.796809 -0.58761,1.794635 -0.602039,1.91363 -0.596823,4.921939 0.0047,2.699127 0.05754,3.252125 0.424667,4.442916 1.544461,5.009488 5.145157,8.988985 9.824315,10.857842 2.29338,0.915979 3.563573,1.114815 6.610621,1.034839 2.455445,-0.06445 2.887799,-0.126859 4.442916,-0.641331 z"
     id="path29"
     inkscape:connector-curvature="0" />
  <path
     style="fill:#e6e6e6;fill-rule:evenodd;stroke:#e6e6e6;stroke-width:3;stroke-linecap:round;stroke-linejoin:round;stroke-opacity:1;fill-opacity:1"
     d="M 34.081949,30.760695 V 49.98641"
     id="path32"
     inkscape:connector-curvature="0" />
  <path
     style="fill:#e6e6e6;fill-rule:evenodd;stroke:#e6e6e6;stroke-width:3;stroke-linecap:round;stroke-linejoin:round;stroke-opacity:1;fill-opacity:1"
     d="M 42.88333,30.760694 V 49.98641"
     id="path32-3"
     inkscape:connector-curvature="0" />
  <path
     style="fill:#e6e6e6;fill-rule:evenodd;stroke:#e6e6e6;stroke-width:3;stroke-linecap:round;stroke-linejoin:round;stroke-opacity:1;fill-opacity:1"
     d="M 51.684714,30.760694 V 49.98641"
     id="path32-6"
     inkscape:connector-curvature="0" />
  <rect
     style="opacity:1;fill:#e6e6e6;fill-opacity:1;stroke:#e6e6e6;stroke-width:3.24868202;stroke-linecap:round;stroke-linejoin:round;stroke-miterlimit:4;stroke-dasharray:none;stroke-dashoffset:0;stroke-opacity:1"
     id="rect860"
     width="2.4978487"
     height="3.7462716"
     x="32.833023"
     y="35.254517" />
  <rect
     style="opacity:1;fill:#e6e6e6;fill-opacity:1;stroke:#e6e6e6;stroke-width:3.24868202;stroke-linecap:round;stroke-linejoin:round;stroke-miterlimit:4;stroke-dasharray:none;stroke-dashoffset:0;stroke-opacity:1"
     id="rect860-7"
     width="2.4978487"
     height="3.7462716"
     x="41.571987"
     y="42.120846" />
  <rect
     style="opacity:1;fill:#e6e6e6;fill-opacity:1;stroke:#e6e6e6;stroke-width:3.24868202;stroke-linecap:round;stroke-linejoin:round;stroke-miterlimit:4;stroke-dasharray:none;stroke-dashoffset:0;stroke-opacity:1"
     id="rect860-5"
     width="2.4978487"
     height="3.7462716"
     x="50.435791"
     y="39.873684" />
</svg>
