<?xml version="1.0" encoding="UTF-8" standalone="no"?>
<!-- Created with Inkscape (http://www.inkscape.org/) -->

<svg
   xmlns:dc="http://purl.org/dc/elements/1.1/"
   xmlns:cc="http://creativecommons.org/ns#"
   xmlns:rdf="http://www.w3.org/1999/02/22-rdf-syntax-ns#"
   xmlns:svg="http://www.w3.org/2000/svg"
   xmlns="http://www.w3.org/2000/svg"
   xmlns:sodipodi="http://sodipodi.sourceforge.net/DTD/sodipodi-0.dtd"
   xmlns:inkscape="http://www.inkscape.org/namespaces/inkscape"
   version="1.1"
   id="svg2"
   width="107.5308"
   height="80.697617"
   viewBox="0 0 107.5308 80.697616"
   sodipodi:docname="iconFuncTwitter.svg"
   inkscape:version="0.92.1 r15371"
   inkscape:export-filename="/home/gsp/Sync/SERGE/web/images/iconFuncTwitter.png"
   inkscape:export-xdpi="130.85889"
   inkscape:export-ydpi="130.85889">
  <metadata
     id="metadata8">
    <rdf:RDF>
      <cc:Work
         rdf:about="">
        <dc:format>image/svg+xml</dc:format>
        <dc:type
           rdf:resource="http://purl.org/dc/dcmitype/StillImage" />
        <dc:title />
      </cc:Work>
    </rdf:RDF>
  </metadata>
  <defs
     id="defs6" />
  <sodipodi:namedview
     pagecolor="#ffffff"
     bordercolor="#666666"
     borderopacity="1"
     objecttolerance="10"
     gridtolerance="10"
     guidetolerance="10"
     inkscape:pageopacity="0"
     inkscape:pageshadow="2"
     inkscape:window-width="1024"
     inkscape:window-height="576"
     id="namedview4"
     showgrid="false"
     inkscape:zoom="2.0025263"
     inkscape:cx="-48.144182"
     inkscape:cy="39.430474"
     inkscape:window-x="0"
     inkscape:window-y="24"
     inkscape:window-maximized="1"
     inkscape:current-layer="svg2"
     fit-margin-top="1"
     fit-margin-bottom="1"
     fit-margin-right="1"
     fit-margin-left="1" />
  <path
     style="fill:#e6e6e6;stroke-width:0.12164717;fill-opacity:1"
     d="M 27.952159,78.983976 C 19.478094,78.422657 10.778361,75.686216 3.5010751,71.29306 2.0935778,70.44338 2.0609089,70.414379 2.5887204,70.483075 c 0.3010766,0.0392 1.614871,0.105584 2.919534,0.147554 8.5980096,0.276561 17.1390846,-2.340252 23.9364966,-7.333662 l 1.006,-0.739013 -1.066823,-0.08461 C 21.968622,61.885206 15.404081,56.875421 12.820061,49.832492 l -0.26026,-0.709368 0.82311,0.101122 c 1.567968,0.192648 5.093571,0.121733 6.418884,-0.129111 0.868582,-0.164399 1.146894,-0.257003 0.973178,-0.32381 -0.133811,-0.05147 -0.859443,-0.287321 -1.612508,-0.52413 C 11.723009,45.907783 6.274314,38.863822 5.9053901,31.108722 c -0.03742,-0.786142 -0.036271,-1.429355 0.00255,-1.429355 0.03876,0 0.4984056,0.213051 1.0214852,0.473438 1.2478758,0.621201 2.7596833,1.146995 4.1871987,1.456283 1.32403,0.286862 3.27704,0.474676 3.089507,0.297105 -0.0669,-0.06334 -0.477467,-0.39356 -0.912355,-0.733793 C 12.236688,30.345377 10.567297,28.6128 9.7454016,27.489718 6.0068451,22.381181 5.0128178,15.944109 7.0282602,9.8941498 7.4527136,8.620023 8.4761537,6.4447611 8.6511643,6.4447611 c 0.054532,0 0.3955903,0.3694988 0.7578609,0.8211161 1.0130498,1.2628819 4.9975938,5.2094258 6.5609898,6.4984178 7.367375,6.074251 15.394822,9.918624 24.451083,11.709706 2.807237,0.555194 7.790961,1.146983 7.783171,0.924206 -0.0013,-0.03525 -0.07842,-0.502064 -0.171525,-1.037315 -0.689044,-3.960974 -0.07048,-8.092579 1.766562,-11.799775 0.954608,-1.926408 2.076622,-3.481317 3.64085,-5.0455448 3.308623,-3.3086233 7.50894,-5.2419453 12.149519,-5.592179 5.330363,-0.4023012 10.330504,1.3270452 14.5073,5.017472 L 81.205114,8.9199695 82.618358,8.57828 c 3.037317,-0.734342 5.860619,-1.7965109 8.760658,-3.2958913 0.963401,-0.4980989 1.79556,-0.9056304 1.84923,-0.9056304 0.131181,0 -0.775689,2.1757535 -1.318289,3.1628264 -1.351189,2.45802 -3.801118,5.2083913 -5.900594,6.6242213 -0.584887,0.394422 -1.04897,0.73159 -1.031306,0.749253 0.01762,0.01762 0.802176,-0.0982 1.743369,-0.257489 2.782785,-0.470947 5.051047,-1.096887 7.570451,-2.089099 0.759016,-0.298919 1.403602,-0.51992 1.43242,-0.491101 0.08823,0.08822 -2.046834,2.876023 -3.14093,4.101158 -1.418143,1.588007 -3.191383,3.265329 -4.874064,4.610414 l -1.414872,1.131005 -0.0018,2.637697 c -0.0018,2.70679 -0.120752,4.540529 -0.446006,6.887609 -2.22104,16.027171 -11.214589,30.521187 -24.21959,39.032311 -7.520895,4.922048 -16.185884,7.783228 -25.645814,8.468241 -1.554399,0.112558 -6.55795,0.137591 -8.028711,0.04018 z M -11.46571,41.661612 c 1.9e-5,-3.546009 0.01558,-4.979119 0.03454,-3.184678 0.01896,1.794442 0.01896,4.695729 -3.8e-5,6.447302 -0.01896,1.751574 -0.03449,0.283394 -0.03449,-3.262624 z m -0.04706,-6.802099 c -0.0051,-0.128236 0.02344,-0.200088 0.06389,-0.159665 0.04042,0.04041 0.04477,0.145343 0.0096,0.233158 -0.03882,0.09705 -0.06765,0.06822 -0.07349,-0.07349 z"
     id="path18"
     inkscape:connector-curvature="0" />
</svg>
