<?xml version="1.0" encoding="UTF-8" standalone="no"?>
<!-- Created with Inkscape (http://www.inkscape.org/) -->

<svg
   xmlns:dc="http://purl.org/dc/elements/1.1/"
   xmlns:cc="http://creativecommons.org/ns#"
   xmlns:rdf="http://www.w3.org/1999/02/22-rdf-syntax-ns#"
   xmlns:svg="http://www.w3.org/2000/svg"
   xmlns="http://www.w3.org/2000/svg"
   xmlns:sodipodi="http://sodipodi.sourceforge.net/DTD/sodipodi-0.dtd"
   xmlns:inkscape="http://www.inkscape.org/namespaces/inkscape"
   width="210mm"
   height="297mm"
   viewBox="0 0 744.09448819 1052.3622047"
   id="svg2"
   version="1.1"
   inkscape:version="0.91 r13725"
   sodipodi:docname="icoScience.svg">
  <sodipodi:namedview
     id="base"
     pagecolor="#d7d7d7"
     bordercolor="#666666"
     borderopacity="1.0"
     inkscape:pageopacity="0"
     inkscape:pageshadow="2"
     inkscape:zoom="2"
     inkscape:cx="225.55156"
     inkscape:cy="837.1077"
     inkscape:document-units="px"
     inkscape:current-layer="layer1"
     showgrid="false"
     inkscape:window-width="1024"
     inkscape:window-height="576"
     inkscape:window-x="0"
     inkscape:window-y="24"
     inkscape:window-maximized="1" />
  <defs
     id="defs4" />
  <metadata
     id="metadata7">
    <rdf:RDF>
      <cc:Work
         rdf:about="">
        <dc:format>image/svg+xml</dc:format>
        <dc:type
           rdf:resource="http://purl.org/dc/dcmitype/StillImage" />
        <dc:title />
      </cc:Work>
    </rdf:RDF>
  </metadata>
  <g
     id="layer1"
     inkscape:groupmode="layer"
     inkscape:label="Calque 1">
    <path
       id="text3336"
       d="m 218.74871,138.69102 c -12.41423,6.22415 -20.88101,18.81649 -20.88101,33.5331 0,16.69328 9.87112,29.4373 27.64139,36.07872 2.85707,1.07869 4.70875,1.78704 6.79348,2.58066 a 15.556126,15.556126 0 0 1 -2.05674,-7.69331 15.556126,15.556126 0 0 1 10.98878,-14.85491 c -8.69656,-3.24372 -9.6557,-3.67435 -11.23808,-4.62378 -4.84644,-3.05146 -7.35832,-7.18045 -7.35832,-12.02688 0,-6.77275 4.09824,-11.81814 10.35773,-13.12149 l -14.24723,-19.87211 z m 41.13293,57.92772 a 15.556126,15.556126 0 0 1 1.47634,6.57145 15.556126,15.556126 0 0 1 -12.89555,15.32625 c 0.008,0.006 0.0151,0.0112 0.0234,0.0175 3.94895,3.05146 6.10207,8.0774 6.10207,13.46233 0,9.51337 -7.35941,16.15595 -17.94977,16.15595 -10.94936,0 -16.87278,-5.38548 -17.94976,-16.51433 l -25.6684,0 c 2.15398,25.12967 20.28347,40.20778 43.61816,40.20778 23.87319,0 42.36191,-18.48841 42.36191,-42.54109 0,-13.96563 -4.45969,-24.12826 -19.11836,-32.68587 z"
       style="font-style:normal;font-variant:normal;font-weight:bold;font-stretch:normal;font-size:180px;line-height:125%;font-family:'TeX Gyre Adventor';-inkscape-font-specification:'TeX Gyre Adventor Bold';text-align:center;letter-spacing:0px;word-spacing:0px;text-anchor:middle;fill:#ffffff;fill-opacity:1;stroke:none;stroke-width:1px;stroke-linecap:butt;stroke-linejoin:miter;stroke-opacity:1"
       inkscape:export-xdpi="199.36392"
       inkscape:export-ydpi="199.36392"
       inkscape:connector-curvature="0" />
    <path
       inkscape:connector-curvature="0"
       id="path3340"
       d="m 216.69196,192.90456 -10.4296,18.0646 12.08934,6.97978 9.90987,-17.16441 z"
       style="fill:#ffffff;fill-opacity:1;fill-rule:evenodd;stroke:#ffffff;stroke-width:3.98883653;stroke-linecap:round;stroke-linejoin:round;stroke-opacity:1"
       inkscape:export-xdpi="199.36392"
       inkscape:export-ydpi="199.36392" />
    <path
       sodipodi:nodetypes="ccccccc"
       inkscape:connector-curvature="0"
       id="path3342"
       d="m 209.63254,212.89511 -4.56215,7.90188 0.59492,2.22027 2.62342,1.51463 2.17276,-0.58219 4.40393,-7.7995 z"
       style="fill:#ffffff;fill-opacity:1;fill-rule:evenodd;stroke:#ffffff;stroke-width:3.98883653;stroke-linecap:round;stroke-linejoin:round;stroke-opacity:1"
       inkscape:export-xdpi="199.36392"
       inkscape:export-ydpi="199.36392" />
    <path
       sodipodi:nodetypes="ccccc"
       inkscape:connector-curvature="0"
       id="path4144"
       d="m 193.99714,231.51022 23.76197,0.004 2.11029,29.67246 -8.55524,0.12465 z"
       style="fill:#ffffff;fill-opacity:1;fill-rule:evenodd;stroke:#ffffff;stroke-width:1.99441826;stroke-linecap:round;stroke-linejoin:round;stroke-miterlimit:4;stroke-dasharray:none;stroke-opacity:1"
       inkscape:export-xdpi="199.36392"
       inkscape:export-ydpi="199.36392" />
    <circle
       r="8.1551819"
       cy="203.19064"
       cx="245.80159"
       id="path4158"
       style="opacity:1;fill:#ffffff;fill-opacity:1;stroke:#ffffff;stroke-width:3.13523006;stroke-linecap:round;stroke-linejoin:round;stroke-miterlimit:4;stroke-dasharray:none;stroke-dashoffset:0;stroke-opacity:1"
       inkscape:export-xdpi="199.36392"
       inkscape:export-ydpi="199.36392" />
    <path
       sodipodi:nodetypes="cc"
       inkscape:connector-curvature="0"
       id="path4334"
       d="m 218.98936,139.12792 13.84287,18.97463"
       style="fill:none;fill-rule:evenodd;stroke:#ffffff;stroke-width:0.99720913px;stroke-linecap:round;stroke-linejoin:round;stroke-opacity:1"
       inkscape:export-xdpi="199.36392"
       inkscape:export-ydpi="199.36392" />
    <rect
       transform="matrix(0.58581413,0.81044544,-0.81044544,0.58581413,0,0)"
       rx="0.87593472"
       ry="0.87593472"
       y="-104.11298"
       x="243.97018"
       height="16.357714"
       width="16.357716"
       id="rect4365"
       style="opacity:1;fill:#ffffff;fill-opacity:1;stroke:#ffffff;stroke-width:0.43796736;stroke-linecap:round;stroke-linejoin:round;stroke-miterlimit:4;stroke-dasharray:none;stroke-dashoffset:0;stroke-opacity:1"
       inkscape:export-xdpi="199.36392"
       inkscape:export-ydpi="199.36392" />
    <rect
       transform="matrix(0.58581413,0.81044544,-0.81044544,0.58581413,0,0)"
       rx="0.68910372"
       ry="0.48181006"
       y="-108.85001"
       x="246.91342"
       height="8.4603739"
       width="10.104088"
       id="rect4365-7"
       style="opacity:1;fill:#ffffff;fill-opacity:1;stroke:#ffffff;stroke-width:0.28810465;stroke-linecap:round;stroke-linejoin:round;stroke-miterlimit:4;stroke-dasharray:none;stroke-dashoffset:0;stroke-opacity:1"
       inkscape:export-xdpi="199.36392"
       inkscape:export-ydpi="199.36392" />
    <path
       transform="matrix(-0.94377108,0.33059969,-0.33059969,-0.94377108,0,0)"
       sodipodi:open="true"
       d="m -165.91162,-222.63643 a 1.6085854,1.6085854 0 0 1 -1.34309,1.58653"
       sodipodi:end="1.40499"
       sodipodi:start="0"
       sodipodi:ry="1.6085854"
       sodipodi:rx="1.6085854"
       sodipodi:cy="-222.63643"
       sodipodi:cx="-167.5202"
       sodipodi:type="arc"
       id="path4213-2"
       style="opacity:1;fill:#ffffff;fill-opacity:1;stroke:#ffffff;stroke-width:1.99441826;stroke-linecap:round;stroke-linejoin:round;stroke-miterlimit:4;stroke-dasharray:none;stroke-dashoffset:0;stroke-opacity:1"
       inkscape:export-xdpi="199.36392"
       inkscape:export-ydpi="199.36392" />
    <path
       inkscape:transform-center-y="-1.318071"
       inkscape:transform-center-x="-0.062477161"
       transform="matrix(0.65912354,0.75203468,-0.75203468,0.65912354,0,0)"
       sodipodi:open="true"
       d="m 252.77056,-73.862679 a 1.6085854,1.6085854 0 0 1 -1.34309,1.586525"
       sodipodi:end="1.40499"
       sodipodi:start="0"
       sodipodi:ry="1.6085854"
       sodipodi:rx="1.6085854"
       sodipodi:cy="-73.862679"
       sodipodi:cx="251.16197"
       sodipodi:type="arc"
       id="path4213-6"
       style="opacity:1;fill:#ffffff;fill-opacity:1;stroke:#ffffff;stroke-width:1.99441826;stroke-linecap:round;stroke-linejoin:round;stroke-miterlimit:4;stroke-dasharray:none;stroke-dashoffset:0;stroke-opacity:1"
       inkscape:export-xdpi="199.36392"
       inkscape:export-ydpi="199.36392" />
  </g>
</svg>
