<?xml version="1.0" encoding="UTF-8" standalone="no"?>
<svg
   xmlns:dc="http://purl.org/dc/elements/1.1/"
   xmlns:cc="http://creativecommons.org/ns#"
   xmlns:rdf="http://www.w3.org/1999/02/22-rdf-syntax-ns#"
   xmlns:svg="http://www.w3.org/2000/svg"
   xmlns="http://www.w3.org/2000/svg"
   xmlns:sodipodi="http://sodipodi.sourceforge.net/DTD/sodipodi-0.dtd"
   xmlns:inkscape="http://www.inkscape.org/namespaces/inkscape"
   viewBox="0 0 70 70"
   height="70"
   width="70"
   id="svg2"
   version="1.1"
   sodipodi:docname="navResultsIco.svg"
   inkscape:version="0.92.3 (2405546, 2018-03-11)">
  <sodipodi:namedview
     pagecolor="#ffffff"
     bordercolor="#666666"
     borderopacity="1"
     objecttolerance="10"
     gridtolerance="10"
     guidetolerance="10"
     inkscape:pageopacity="0"
     inkscape:pageshadow="2"
     inkscape:window-width="1024"
     inkscape:window-height="571"
     id="namedview6"
     showgrid="false"
     inkscape:zoom="4.76792"
     inkscape:cx="-19.994563"
     inkscape:cy="31.371726"
     inkscape:window-x="0"
     inkscape:window-y="0"
     inkscape:window-maximized="1"
     inkscape:current-layer="svg2" />
  <metadata
     id="metadata8">
    <rdf:RDF>
      <cc:Work
         rdf:about="">
        <dc:format>image/svg+xml</dc:format>
        <dc:type
           rdf:resource="http://purl.org/dc/dcmitype/StillImage" />
        <dc:title />
      </cc:Work>
    </rdf:RDF>
  </metadata>
  <defs
     id="defs6" />
  <path
     id="path821"
     d="M 52.78635,61.484398 C 45.165414,60.731993 38.366946,53.847681 38.808637,46.003389 39.317751,43.145085 36.932308,40.049538 33.891822,41.070813 30.42061,42.42429 31.764935,46.526504 31.187317,49.329377 29.757144,54.263871 25.911711,58.559527 21.154293,60.522605 14.206798,63.244076 5.5214577,59.836269 2.538245,52.919063 0.36390186,48.569883 0.70535106,43.239876 3.1399513,39.07071 6.9514715,31.276148 13.012298,24.936342 18.084615,17.994125 c 1.665872,-3.061817 3.043649,-7.481737 7.129411,-7.808573 2.722313,-0.4055249 5.799703,1.319918 5.904772,4.295761 0.351107,3.628447 0.0097,7.288428 0.286664,10.919742 0.932641,-2.866292 5.706099,-3.625403 6.89782,-0.583412 0.940749,1.787732 0.519955,-2.939241 0.684755,-3.659376 0.314982,-3.370779 -0.749677,-7.58545 2.182912,-10.065913 2.798795,-2.0813435 7.527608,-1.038065 8.492223,2.540647 1.024243,2.911468 1.791866,6.032037 4.0664,8.280268 5.147316,6.32844 11.342608,12.158708 14.40989,19.874498 2.012402,5.445009 0.244171,12.126361 -4.075804,15.967729 -3.074253,2.709205 -7.203036,4.025978 -11.277308,3.728902 z m -35.336222,-2.04233 c 5.76303,-0.668257 10.3765,-5.529944 12.017987,-10.909426 0.07876,-2.826949 -0.502922,-6.102197 1.957061,-8.162145 2.682649,-2.599324 7.779237,-1.385649 8.856688,2.254991 0.929668,2.974186 -0.04371,6.353608 1.639312,9.154738 2.91368,6.217645 10.94462,9.676396 17.32551,6.734416 4.861353,-1.856482 7.81503,-6.973553 7.771576,-12.064107 5.87e-4,-5.129117 -3.490673,-9.368677 -6.366253,-13.306754 -3.442728,-4.576763 -7.714636,-8.515975 -10.810061,-13.346293 -1.609424,-2.48007 -1.076544,-7.151053 -4.67188,-7.747209 -4.002432,-0.765819 -4.441113,3.829884 -4.251797,6.670312 -0.598745,2.772217 1.337252,7.646801 -2.307157,8.609889 -2.003636,-0.06972 -2.927303,-4.576957 -5.045635,-1.608231 -1.498115,3.46468 -4.7075,0.594965 -4.176948,-2.474043 -0.158998,-3.309956 0.510156,-6.821665 -0.672062,-9.981687 -2.181564,-2.512355 -6.218201,-0.76283 -7.117463,2.116286 -2.355249,5.542142 -6.882338,9.678436 -10.320983,14.520186 -3.1773714,4.382497 -6.4642012,8.909907 -8.0229737,14.159583 -1.4411357,6.70562 3.3198551,13.984551 10.0991507,15.19449 1.344851,0.269487 2.732928,0.39106 4.095928,0.185004 z M 14.588187,57.355295 C 8.6009426,56.741731 3.8952644,50.69373 4.9216681,44.731932 5.6407393,38.47352 12.409376,33.811763 18.517011,35.484536 c 6.269936,1.27751 10.226517,8.635884 7.880173,14.574294 -1.647042,4.820436 -6.773886,7.911038 -11.808997,7.296465 z m 3.913268,-2.224726 c 5.432634,-1.426637 8.339024,-8.258796 5.551804,-13.142801 -1.748972,-3.273232 -5.487917,-5.305691 -9.193487,-4.7752 -5.5641854,0.372794 -9.5556332,6.658092 -7.6627611,11.889173 1.3770537,4.710653 6.6555831,7.376213 11.3044441,6.028828 z m 33.129953,1.814306 c -5.900424,-1.065192 -10.077552,-7.370771 -8.695351,-13.215299 1.061384,-5.614424 6.942837,-9.691178 12.579844,-8.683919 5.708247,0.714332 10.135714,6.463104 9.336085,12.174139 -0.389812,5.667469 -5.904343,10.35114 -11.562825,9.860998 -0.553733,-0.0065 -1.114888,-0.01586 -1.657753,-0.135919 z m 4.425735,-1.989933 c 5.256773,-1.179854 8.452011,-7.424325 6.286409,-12.368679 -2.006409,-5.54344 -9.728723,-7.583411 -14.209224,-3.770496 -4.277534,3.172025 -4.712198,10.104935 -0.777857,13.728277 2.235468,2.255565 5.626971,3.16538 8.700672,2.410898 z M 34.271337,36.596584 c -3.777518,-0.0034 -4.190066,-5.212154 -0.376584,-5.49944 2.39388,-0.757671 7.205634,0.28295 6.151317,3.587061 -1.136677,1.980054 -3.755393,2.11908 -5.774733,1.912379 z m 2.340326,-1.917023 c 4.232795,-1.0746 -2.259645,-2.984444 -3.535665,-1.109624 -0.354277,1.146231 2.689235,1.342474 3.535665,1.109624 z"
     style="opacity:1;fill:#f9f9f9;stroke:#f9f9f9;stroke-width:0.6;stroke-miterlimit:4;stroke-dasharray:none;stroke-opacity:1"
     inkscape:connector-curvature="0" />
</svg>
