<?xml version="1.0" encoding="UTF-8" standalone="no"?>
<!-- Created with Inkscape (http://www.inkscape.org/) -->

<svg
   xmlns:dc="http://purl.org/dc/elements/1.1/"
   xmlns:cc="http://creativecommons.org/ns#"
   xmlns:rdf="http://www.w3.org/1999/02/22-rdf-syntax-ns#"
   xmlns:svg="http://www.w3.org/2000/svg"
   xmlns="http://www.w3.org/2000/svg"
   xmlns:sodipodi="http://sodipodi.sourceforge.net/DTD/sodipodi-0.dtd"
   xmlns:inkscape="http://www.inkscape.org/namespaces/inkscape"
   width="20"
   height="20"
   viewBox="0 0 18.75 18.75"
   id="svg2"
   version="1.1"
   inkscape:version="0.92.1 r15371"
   sodipodi:docname="pictoLanguage.svg"
   inkscape:export-filename="/home/gsp/Sync/SERGE/web/images/pictogrammes/pictoLanguage.png"
   inkscape:export-xdpi="192"
   inkscape:export-ydpi="192">
  <sodipodi:namedview
     id="base"
     pagecolor="#c1c1c1"
     bordercolor="#666666"
     borderopacity="1.0"
     inkscape:pageopacity="0"
     inkscape:pageshadow="2"
     inkscape:zoom="16"
     inkscape:cx="-5.5942685"
     inkscape:cy="10.498526"
     inkscape:document-units="px"
     inkscape:current-layer="layer1"
     showgrid="false"
     inkscape:window-width="1024"
     inkscape:window-height="576"
     inkscape:window-x="0"
     inkscape:window-y="24"
     inkscape:window-maximized="1"
     units="px"
     inkscape:object-nodes="false"
     inkscape:snap-nodes="false"
     inkscape:snap-others="false" />
  <defs
     id="defs4" />
  <metadata
     id="metadata7">
    <rdf:RDF>
      <cc:Work
         rdf:about="">
        <dc:format>image/svg+xml</dc:format>
        <dc:type
           rdf:resource="http://purl.org/dc/dcmitype/StillImage" />
        <dc:title />
      </cc:Work>
    </rdf:RDF>
  </metadata>
  <g
     id="layer1"
     inkscape:groupmode="layer"
     inkscape:label="Calque 1"
     transform="translate(0,-1033.6122)">
    <g
       id="g865"
       transform="translate(-1.420527,-1.2973908)">
      <path
         inkscape:export-ydpi="77.14286"
         inkscape:export-xdpi="77.14286"
         style="opacity:1;fill:none;fill-opacity:1;stroke:#f9f9f9;stroke-width:0.70162475;stroke-linecap:round;stroke-linejoin:round;stroke-miterlimit:4;stroke-dasharray:none;stroke-dashoffset:0;stroke-opacity:1"
         id="path3336"
         sodipodi:type="arc"
         sodipodi:cx="1042.7947"
         sodipodi:cy="-9.3911915"
         sodipodi:rx="6.2015457"
         sodipodi:ry="6.2015457"
         sodipodi:start="0"
         sodipodi:end="4.707153"
         d="m 1048.9962,-9.3911915 a 6.2015457,6.2015457 0 0 1 -6.1907,6.2015363 6.2015457,6.2015457 0 0 1 -6.2123,-6.1798889 6.2015457,6.2015457 0 0 1 6.169,-6.2231079 l 0.033,6.2014605 z"
         transform="rotate(90)" />
      <path
         inkscape:export-ydpi="77.14286"
         inkscape:export-xdpi="77.14286"
         style="fill:none;fill-rule:evenodd;stroke:#f9f9f9;stroke-width:0.70162475;stroke-linecap:round;stroke-linejoin:round;stroke-miterlimit:4;stroke-dasharray:none;stroke-opacity:1"
         d="M 3.2082784,1042.7795 H 15.5117"
         id="path4157"
         inkscape:connector-curvature="0"
         sodipodi:nodetypes="cc" />
      <path
         inkscape:export-ydpi="77.14286"
         inkscape:export-xdpi="77.14286"
         style="fill:none;fill-rule:evenodd;stroke:#f9f9f9;stroke-width:0.70162475;stroke-linecap:round;stroke-linejoin:round;stroke-miterlimit:4;stroke-dasharray:none;stroke-opacity:1"
         d="M 4.3853222,1039.2736 H 14.443983"
         id="path4157-3"
         inkscape:connector-curvature="0"
         sodipodi:nodetypes="cc" />
      <path
         inkscape:export-ydpi="77.14286"
         inkscape:export-xdpi="77.14286"
         style="fill:none;fill-rule:evenodd;stroke:#f9f9f9;stroke-width:0.70162475;stroke-linecap:round;stroke-linejoin:round;stroke-miterlimit:4;stroke-dasharray:none;stroke-opacity:1"
         d="M 4.5254867,1046.5404 H 9.2180656"
         id="path4157-6"
         inkscape:connector-curvature="0"
         sodipodi:nodetypes="cc" />
      <path
         inkscape:export-ydpi="77.14286"
         inkscape:export-xdpi="77.14286"
         style="fill:none;fill-rule:evenodd;stroke:#f9f9f9;stroke-width:0.70162475;stroke-linecap:round;stroke-linejoin:round;stroke-miterlimit:4;stroke-dasharray:none;stroke-opacity:1"
         d="m 9.3963911,1036.734 v 12.1269"
         id="path4157-6-7"
         inkscape:connector-curvature="0"
         sodipodi:nodetypes="cc" />
      <path
         inkscape:export-ydpi="77.14286"
         inkscape:export-xdpi="77.14286"
         style="fill:none;fill-rule:evenodd;stroke:#f9f9f9;stroke-width:0.70162475;stroke-linecap:round;stroke-linejoin:round;stroke-miterlimit:4;stroke-dasharray:none;stroke-opacity:1"
         d="m 9.0169207,1036.65 c -3.7946179,4.2716 -4.1846203,8.5062 -0.00789,12.2912"
         id="path4157-6-7-5"
         inkscape:connector-curvature="0"
         sodipodi:nodetypes="cc" />
    </g>
    <rect
       style="opacity:1;fill:none;fill-opacity:1;stroke:#000000;stroke-width:0.05663508;stroke-linecap:round;stroke-linejoin:round;stroke-miterlimit:4;stroke-dasharray:none;stroke-dashoffset:0;stroke-opacity:0"
       id="rect3342"
       width="13.240693"
       height="20.791777"
       x="3.3632176"
       y="1033.9121"
       rx="0.039727118"
       ry="0.026956983"
       inkscape:export-xdpi="77.14286"
       inkscape:export-ydpi="77.14286" />
    <path
       style="fill:#f9f9f9;fill-opacity:1;stroke:#f9f9f9;stroke-width:0.13393515;stroke-miterlimit:4;stroke-dasharray:none;stroke-opacity:1"
       d="m 8.4103348,1051.2667 c -0.107717,-0.015 -0.194175,-0.057 -0.266909,-0.1289 -0.03919,-0.039 -0.05782,-0.064 -0.07685,-0.1037 -0.04455,-0.093 -0.05616,-0.2144 -0.02575,-0.2694 0.03657,-0.066 0.08686,-0.1391 0.205353,-0.2973 0.3546332,-0.4732 0.5326382,-0.7776 0.6430932,-1.1 0.04879,-0.1424 0.06585,-0.23 0.06933,-0.356 0.0027,-0.1 0.0016,-0.1142 -0.01389,-0.1735 -0.02493,-0.095 -0.05071,-0.1433 -0.124367,-0.2313 -0.224798,-0.2685 -0.4451132,-0.6093 -0.5916062,-0.9148 -0.238952,-0.4984 -0.373681,-1.0038 -0.411603,-1.5441 -0.01057,-0.1505 -0.0046,-0.5487 0.01026,-0.6876 0.109626,-1.0235 0.559838,-1.9394 1.3177742,-2.6809 0.867654,-0.8487 2.039775,-1.3552 3.315769,-1.4325 0.191456,-0.011 0.635133,-0.01 0.813017,0.014 0.699799,0.07 1.308077,0.2439 1.904978,0.5457 0.67874,0.3433 1.256663,0.8236 1.700436,1.4132 0.728974,0.9687 1.01267,2.1796 0.7853,3.3521 -0.249294,1.2855 -1.102843,2.4136 -2.339917,3.0926 -0.554403,0.3044 -1.172078,0.5062 -1.819479,0.5944 -0.680925,0.093 -1.341583,0.055 -2.010432,-0.1152 -0.127951,-0.033 -0.338565,-0.094 -0.387821,-0.1123 -0.02202,-0.01 -0.04872,0.01 -0.425197,0.2485 -0.308168,0.1974 -0.461902,0.293 -0.598707,0.372 -0.526309,0.304 -0.948593,0.4614 -1.364101,0.5083 -0.09099,0.01 -0.2592762,0.014 -0.3086892,0.01 z m 0.2647252,-0.4382 c 0.383524,-0.048 0.809087,-0.2288 1.452288,-0.6174 0.0711,-0.043 0.233359,-0.1425 0.360585,-0.221 0.127225,-0.079 0.284896,-0.1747 0.35038,-0.2134 0.06548,-0.039 0.134727,-0.081 0.153874,-0.093 0.05024,-0.052 0.117569,0.017 0.175076,0.025 0.369679,0.1257 0.712963,0.2014 1.096389,0.2417 0.351885,0.037 0.786976,0.032 1.14979,-0.014 1.950247,-0.2444 3.516797,-1.6304 3.836778,-3.3945 0.04564,-0.2516 0.0612,-0.4563 0.05628,-0.7402 -0.0037,-0.2124 -0.01239,-0.3226 -0.03938,-0.4981 -0.176391,-1.1469 -0.880544,-2.1701 -1.947417,-2.8295 -0.926522,-0.5728 -2.081669,-0.8102 -3.212531,-0.6604 -1.346214,0.1783 -2.530534,0.8975 -3.232041,1.9626 -0.3543002,0.5379 -0.5635932,1.1351 -0.6234862,1.7791 -0.01344,0.1445 -0.01139,0.5299 0.0036,0.6701 0.08506,0.7966 0.3841662,1.4973 0.9054142,2.1211 0.08608,0.1031 0.113349,0.1451 0.153537,0.2368 0.06858,0.1563 0.09552,0.3534 0.07462,0.5458 -0.0478,0.4402 -0.303819,0.9427 -0.8543492,1.6768 l -0.02424,0.032 h 0.04343 c 0.02389,0 0.07852,-0.01 0.1214142,-0.01 z m 4.216925,-2.1523 c -0.141458,-0.023 -0.232474,-0.1717 -0.191507,-0.3126 0.02543,-0.087 0.08091,-0.1377 0.192127,-0.1738 0.294378,-0.097 0.672459,-0.2877 0.932979,-0.4736 0.04997,-0.035 0.09441,-0.066 0.09879,-0.07 0.0045,0 -0.02579,-0.04 -0.06957,-0.086 -0.235638,-0.2451 -0.523514,-0.6234 -0.600899,-0.7895 -0.02817,-0.06 -0.02596,-0.1421 0.0056,-0.2052 0.05988,-0.1197 0.201037,-0.1713 0.319756,-0.117 0.05641,0.026 0.08724,0.058 0.138724,0.1432 0.08551,0.1421 0.23589,0.3445 0.369321,0.4968 0.0712,0.081 0.216819,0.2317 0.224442,0.2317 0.0032,0 0.04481,-0.044 0.09248,-0.096 0.306515,-0.3397 0.53928,-0.7333 0.687763,-1.1628 l 0.03774,-0.1087 h -1.120504 -1.120482 l -0.03968,-0.019 c -0.05002,-0.023 -0.106501,-0.079 -0.128589,-0.1298 -0.02211,-0.049 -0.02362,-0.1253 -0.0036,-0.1833 0.01897,-0.056 0.08514,-0.1236 0.140775,-0.1449 0.03715,-0.015 0.06953,-0.015 0.695305,-0.018 h 0.656328 l 0.0023,-0.2822 0.0023,-0.2824 0.02132,-0.041 c 0.09833,-0.1864 0.344694,-0.187 0.444069,0 0.01758,0.033 0.01792,0.04 0.02017,0.3201 l 0.0023,0.2865 h 0.613463 c 0.632259,0 0.685667,0 0.743339,0.032 0.162364,0.082 0.17523,0.3274 0.02229,0.4241 -0.05779,0.036 -0.09961,0.043 -0.276353,0.043 H 15.6403 l -0.03772,0.1189 c -0.179216,0.5647 -0.465087,1.0588 -0.86777,1.4994 -0.03571,0.04 -0.06493,0.074 -0.06493,0.076 0,0.011 0.133103,0.1065 0.22994,0.1746 0.167976,0.1182 0.393086,0.2517 0.593863,0.3521 0.109904,0.055 0.138746,0.078 0.170421,0.1352 0.0209,0.037 0.02295,0.048 0.02295,0.1155 0,0.086 -0.01509,0.1264 -0.06717,0.1784 -0.05145,0.052 -0.09251,0.067 -0.174459,0.067 -0.06565,0 -0.07442,0 -0.136407,-0.032 -0.280474,-0.1335 -0.640915,-0.3615 -0.910485,-0.576 l -0.103751,-0.083 -0.106708,0.079 c -0.326382,0.2426 -0.639863,0.4125 -1.039857,0.5636 -0.157325,0.059 -0.197208,0.068 -0.256139,0.058 z m -3.7023459,-1.9586 c -0.082729,-0.024 -0.1429991,-0.077 -0.1710887,-0.1518 -0.031357,-0.084 -0.031781,-0.082 0.1552406,-0.6208 0.093864,-0.2704 0.1729366,-0.5072 0.1757046,-0.5262 0.00275,-0.019 0.014011,-0.053 0.024987,-0.075 0.010999,-0.022 0.1912342,-0.5336 0.4005742,-1.1378 0.2781202,-0.8024 0.3868392,-1.1068 0.4037212,-1.1301 0.02829,-0.04 0.08516,-0.079 0.128661,-0.091 0.04938,-0.012 0.126976,-0.011 0.173708,0.019 0.05029,0.025 0.09918,0.08 0.119242,0.1342 0.0085,0.023 0.254553,0.732 0.546734,1.5758 0.29218,0.8437 0.547034,1.5797 0.566342,1.6355 0.03006,0.087 0.03455,0.1077 0.0312,0.1446 -0.0081,0.09 -0.06799,0.1746 -0.149857,0.211 -0.08011,0.035 -0.189415,0.019 -0.256927,-0.041 -0.04576,-0.041 -0.05455,-0.058 -0.112585,-0.2286 -0.02628,-0.077 -0.09445,-0.2735 -0.15151,-0.4365 l -0.103741,-0.2962 H 10.374103 9.7781607 l -0.142036,0.4074 c -0.078119,0.2239 -0.1472235,0.4247 -0.1535626,0.4462 -0.035103,0.1187 -0.1759279,0.1981 -0.2929249,0.1651 z m 1.6042569,-1.5243 c -0.0095,-0.035 -0.413277,-1.1982 -0.418239,-1.2034 -0.0053,-0.011 -0.4219007,1.1878 -0.4216994,1.2082 6.95e-5,0.011 0.08971,0.011 0.4219144,0.011 0.407408,0 0.421685,0 0.418024,-0.014 z"
       id="path48"
       inkscape:connector-curvature="0"
       sodipodi:nodetypes="ccccccccccccccccccccccccccccccccccccccccccccccccscccccccccccccscccccccccccccccccsccscccscccscsccccccccccccccccccccccccccccccccccscc" />
    <path
       style="fill:none;fill-rule:evenodd;stroke:#f9f9f9;stroke-width:0.70125002;stroke-linecap:round;stroke-linejoin:round;stroke-miterlimit:4;stroke-dasharray:none;stroke-opacity:1"
       d="m 8.138436,1035.3207 c 0,0 1.1949249,1.0274 2.160384,2.9002 0.96546,1.8729 0.976612,3.0778 0.976612,3.0778"
       id="path870"
       inkscape:connector-curvature="0"
       sodipodi:nodetypes="czc" />
  </g>
</svg>
